<svg width="219" height="55" viewBox="0 0 219 55" fill="none" xmlns="http://www.w3.org/2000/svg">
<g clip-path="url(#clip0_2102_23)">
<path d="M19.0199 24.9521C18.4056 24.5033 18.0377 23.897 17.9162 23.1331C17.7948 22.3692 17.9562 21.6769 18.4004 21.0563C18.8447 20.4357 19.4448 20.064 20.201 19.9413C20.9571 19.8186 21.6423 19.9816 22.2566 20.4304C22.8709 20.8792 23.2388 21.4856 23.3603 22.2495C23.4818 23.0134 23.3204 23.7056 22.8761 24.3263C22.4319 24.9469 21.8317 25.3186 21.0756 25.4413C20.3195 25.564 19.6342 25.401 19.0199 24.9521ZM14.9265 30.6708C12.7325 29.0679 11.4229 26.9296 10.9977 24.256C10.5726 21.5824 11.1533 19.1373 12.7399 16.9208C14.3265 14.7043 16.443 13.3812 19.0895 12.9517C21.7359 12.5222 24.1561 13.1089 26.3501 14.7118C27.9297 15.8659 29.0422 17.2525 29.6875 18.8717C30.3328 20.4909 30.4482 22.3137 30.0336 24.34L41.7495 32.8995L42.779 39.3735L33.7455 39.2519L32.2688 36.2014L26.8093 37.2152L26.8093 32.4153L25.1309 31.189C23.6305 32.1182 21.9879 32.5807 20.2033 32.5765C18.4187 32.5723 16.6597 31.9371 14.9265 30.6708ZM16.3544 28.6759C17.6269 29.6056 19.1061 30.0365 20.792 29.9685C22.4779 29.9006 23.9505 29.3139 25.2096 28.2084L28.9613 30.9494L29.6675 33.7439L34.0629 33.7651L35.3328 36.9418L39.9634 37.2152L39.4988 34.2933L27.2563 25.3491C27.8815 23.9154 27.9889 22.3651 27.5783 20.698C27.1678 19.0309 26.2824 17.7005 24.9221 16.7067C23.2766 15.5045 21.4615 15.0644 19.4767 15.3866C17.4919 15.7087 15.9045 16.701 14.7145 18.3634C13.5246 20.0258 13.089 21.8596 13.4079 23.8648C13.7268 25.87 14.7089 27.4737 16.3544 28.6759Z" fill="#2E709E"/>
</g>
<path d="M50.596 38V18.4H60.256C62.44 18.4 64.3627 18.8013 66.024 19.604C67.6853 20.388 68.9827 21.508 69.916 22.964C70.8493 24.42 71.316 26.156 71.316 28.172C71.316 30.2067 70.8493 31.9613 69.916 33.436C68.9827 34.892 67.6853 36.0213 66.024 36.824C64.3627 37.608 62.44 38 60.256 38H50.596ZM57.204 32.848H59.976C60.9093 32.848 61.7213 32.6707 62.412 32.316C63.1213 31.9613 63.672 31.4387 64.064 30.748C64.456 30.0387 64.652 29.18 64.652 28.172C64.652 27.1827 64.456 26.3427 64.064 25.652C63.672 24.9613 63.1213 24.4387 62.412 24.084C61.7213 23.7293 60.9093 23.552 59.976 23.552H57.204V32.848ZM73.5328 38V22.684H79.5528V27.304L78.5728 25.988C79.0395 24.7933 79.7861 23.8973 80.8128 23.3C81.8395 22.7027 83.0715 22.404 84.5088 22.404V28.004C84.2288 27.9667 83.9768 27.9387 83.7528 27.92C83.5475 27.9013 83.3328 27.892 83.1088 27.892C82.1568 27.892 81.3728 28.144 80.7568 28.648C80.1595 29.1333 79.8608 29.9827 79.8608 31.196V38H73.5328ZM86.3023 38V22.684H92.6303V38H86.3023ZM89.4663 21.452C88.309 21.452 87.385 21.144 86.6943 20.528C86.0037 19.912 85.6583 19.1467 85.6583 18.232C85.6583 17.3173 86.0037 16.552 86.6943 15.936C87.385 15.32 88.309 15.012 89.4663 15.012C90.6237 15.012 91.5477 15.3013 92.2383 15.88C92.929 16.4587 93.2743 17.2053 93.2743 18.12C93.2743 19.0907 92.929 19.8933 92.2383 20.528C91.5477 21.144 90.6237 21.452 89.4663 21.452ZM99.7752 38L93.6152 22.684H100.111L104.787 35.116H101.511L106.495 22.684H112.487L106.327 38H99.7752ZM121.501 38.28C119.634 38.28 118.001 37.9347 116.601 37.244C115.219 36.5533 114.146 35.6107 113.381 34.416C112.615 33.2027 112.233 31.84 112.233 30.328C112.233 28.7787 112.606 27.4067 113.353 26.212C114.118 25.0173 115.154 24.084 116.461 23.412C117.786 22.74 119.27 22.404 120.913 22.404C122.425 22.404 123.815 22.7027 125.085 23.3C126.373 23.8973 127.399 24.784 128.165 25.96C128.949 27.136 129.341 28.592 129.341 30.328C129.341 30.552 129.331 30.804 129.313 31.084C129.294 31.3453 129.275 31.588 129.257 31.812H117.469V28.76H125.897L123.517 29.572C123.517 28.9747 123.405 28.4707 123.181 28.06C122.975 27.6307 122.686 27.304 122.313 27.08C121.939 26.8373 121.491 26.716 120.969 26.716C120.446 26.716 119.989 26.8373 119.597 27.08C119.223 27.304 118.934 27.6307 118.729 28.06C118.523 28.4707 118.421 28.9747 118.421 29.572V30.524C118.421 31.1773 118.551 31.7373 118.813 32.204C119.074 32.6707 119.447 33.0253 119.933 33.268C120.418 33.492 121.006 33.604 121.697 33.604C122.406 33.604 122.985 33.5107 123.433 33.324C123.899 33.1373 124.385 32.8573 124.889 32.484L128.193 35.816C127.446 36.6187 126.522 37.2347 125.421 37.664C124.338 38.0747 123.031 38.28 121.501 38.28ZM133.274 38V23.524H127.534V18.4H145.622V23.524H139.882V38H133.274ZM153.703 38.28C151.967 38.28 150.427 37.944 149.083 37.272C147.758 36.5813 146.712 35.6387 145.947 34.444C145.182 33.2493 144.799 31.8773 144.799 30.328C144.799 28.7787 145.182 27.4067 145.947 26.212C146.712 25.0173 147.758 24.084 149.083 23.412C150.427 22.74 151.967 22.404 153.703 22.404C155.439 22.404 156.979 22.74 158.323 23.412C159.667 24.084 160.712 25.0173 161.459 26.212C162.224 27.4067 162.607 28.7787 162.607 30.328C162.607 31.8773 162.224 33.2493 161.459 34.444C160.712 35.6387 159.667 36.5813 158.323 37.272C156.979 37.944 155.439 38.28 153.703 38.28ZM153.703 33.352C154.17 33.352 154.59 33.24 154.963 33.016C155.336 32.792 155.635 32.456 155.859 32.008C156.083 31.5413 156.195 30.9813 156.195 30.328C156.195 29.656 156.083 29.1053 155.859 28.676C155.635 28.228 155.336 27.892 154.963 27.668C154.59 27.444 154.17 27.332 153.703 27.332C153.236 27.332 152.816 27.444 152.443 27.668C152.07 27.892 151.771 28.228 151.547 28.676C151.323 29.1053 151.211 29.656 151.211 30.328C151.211 30.9813 151.323 31.5413 151.547 32.008C151.771 32.456 152.07 32.792 152.443 33.016C152.816 33.24 153.236 33.352 153.703 33.352ZM171.308 38.28C169.982 38.28 168.75 37.9627 167.612 37.328C166.492 36.6747 165.596 35.76 164.924 34.584C164.252 33.3893 163.916 31.9707 163.916 30.328C163.916 28.6853 164.252 27.276 164.924 26.1C165.596 24.9053 166.492 23.9907 167.612 23.356C168.75 22.7213 169.982 22.404 171.308 22.404C172.652 22.404 173.753 22.6933 174.612 23.272C175.47 23.832 176.105 24.7 176.516 25.876C176.926 27.0333 177.132 28.5173 177.132 30.328C177.132 32.1573 176.936 33.66 176.544 34.836C176.17 36.012 175.554 36.88 174.696 37.44C173.856 38 172.726 38.28 171.308 38.28ZM172.82 33.352C173.286 33.352 173.706 33.24 174.08 33.016C174.453 32.792 174.752 32.456 174.976 32.008C175.2 31.5413 175.312 30.9813 175.312 30.328C175.312 29.656 175.2 29.1053 174.976 28.676C174.752 28.228 174.453 27.892 174.08 27.668C173.706 27.444 173.286 27.332 172.82 27.332C172.353 27.332 171.933 27.444 171.56 27.668C171.186 27.892 170.888 28.228 170.664 28.676C170.44 29.1053 170.328 29.656 170.328 30.328C170.328 30.9813 170.44 31.5413 170.664 32.008C170.888 32.456 171.186 32.792 171.56 33.016C171.933 33.24 172.353 33.352 172.82 33.352ZM175.508 38V35.928L175.48 30.328L175.2 24.728V17.224H181.528V38H175.508ZM193.598 38V35.284L193.15 34.556V29.404C193.15 28.6573 192.916 28.088 192.45 27.696C192.002 27.304 191.264 27.108 190.238 27.108C189.547 27.108 188.847 27.22 188.138 27.444C187.428 27.6493 186.822 27.9387 186.318 28.312L184.302 24.14C185.198 23.58 186.271 23.1507 187.522 22.852C188.772 22.5533 189.995 22.404 191.19 22.404C193.822 22.404 195.856 22.992 197.294 24.168C198.75 25.344 199.478 27.2107 199.478 29.768V38H193.598ZM189.258 38.28C188.007 38.28 186.962 38.0653 186.122 37.636C185.282 37.2067 184.647 36.6373 184.218 35.928C183.788 35.2 183.574 34.3973 183.574 33.52C183.574 32.5307 183.826 31.6907 184.33 31C184.834 30.3093 185.599 29.7867 186.626 29.432C187.671 29.0773 188.987 28.9 190.574 28.9H193.766V31.952H191.582C190.91 31.952 190.415 32.064 190.098 32.288C189.799 32.4933 189.65 32.8107 189.65 33.24C189.65 33.5947 189.78 33.8933 190.042 34.136C190.322 34.36 190.695 34.472 191.162 34.472C191.591 34.472 191.983 34.36 192.338 34.136C192.711 33.8933 192.982 33.52 193.15 33.016L193.962 34.892C193.719 36.0307 193.206 36.88 192.422 37.44C191.638 38 190.583 38.28 189.258 38.28ZM205.299 43.712C204.459 43.712 203.6 43.5813 202.723 43.32C201.864 43.0773 201.174 42.7507 200.651 42.34L202.751 38C203.068 38.2427 203.423 38.4387 203.815 38.588C204.226 38.7373 204.618 38.812 204.991 38.812C205.551 38.812 205.98 38.6907 206.279 38.448C206.578 38.224 206.82 37.8787 207.007 37.412L207.651 35.788L208.099 35.172L212.999 22.684H218.991L212.691 38.308C212.131 39.708 211.478 40.8 210.731 41.584C210.003 42.368 209.182 42.9187 208.267 43.236C207.371 43.5533 206.382 43.712 205.299 43.712ZM206.783 38.7L200.119 22.684H206.615L211.207 34.612L206.783 38.7Z" fill="#2E709E"/>
<defs>
<clipPath id="clip0_2102_23">
<rect width="39.127" height="39.2525" fill="white" transform="matrix(0.807459 0.589924 -0.582058 0.813147 22.8472 0)"/>
</clipPath>
</defs>
</svg>
